<svg id="Layer_1" data-name="Layer 1" xmlns="http://www.w3.org/2000/svg" viewBox="0 0 546.57 599.66"><defs><style>.cls-1{fill:#ee4037;}.cls-2{fill:#100f10;}</style></defs><path class="cls-1" d="M546.57,175.88A175.76,175.76,0,0,1,385.1,351.22a51.44,51.44,0,0,0-.4-6.17,90,90,0,0,0-3-14.41,46,46,0,0,0-11.63-19.87c-8.63-8.63-23.55-19.68-41.6-17.22-21.64,3-29.11,20.58-43.52,36A175.91,175.91,0,1,1,546.57,175.88Z"/><path class="cls-2" d="M224.5,441.44c.24-3.52,3.14-9,6.2-10.77,21.46-17.59,32.52-27.62,47.95-47.81,10.53-14.92,44.26-5.29,36.59,18.13-6.83,20.86-28,41.6-51.69,58.09-8.78,6.11-20.81,6.08-30,.5C227.68,456,223.9,450.4,224.5,441.44Z"/><path class="cls-2" d="M406.48,512.59a138.13,138.13,0,0,1-20.69,20.69C345.23,566.11,209.18,656.51,48.9,547.37c0,0,12.32-14.45,53.49-19.18a103.71,103.71,0,0,1,12.85-1.05c20.88-.14,114.49,36.73,161-39.62a50.17,50.17,0,0,0,33.59,3.07,16.87,16.87,0,0,0,6.1-3c11.67-8.89,30.59-27.6,28.21-43.05,0,0-8.16-7.19-8.16-12.5a7.6,7.6,0,0,1,1.37-4.66L356,404c6.11-7.77,10.73-12.5,13.94-16.94,3.33-4.69,15.46-15.17,15.21-35.83a51.44,51.44,0,0,0-.4-6.17,90,90,0,0,0-3-14.41,46,46,0,0,0-11.63-19.87c-8.63-8.63-23.55-19.68-41.6-17.22-21.64,3-29.11,20.58-43.52,36a70.13,70.13,0,0,1-26.29,18.28s-7.77-65.33-83.36-74.36c0,0-85.12-4.73-114.59-84.62,0,0-11.56,85.59,24.19,117.59A6.14,6.14,0,0,1,87,309.87c1.09,5.06,2.89,19-3.43,41.57,0,0-7.47,23.94,23.87,24.92v.32c0,2.5.55,19.51,15.53,23,0,0-2.78,19.25,17.16,18.78,0,0,2.24,54.14,49.62,42.29a1.87,1.87,0,0,1-.72.62c-14.16,5.23-21.38,5.41-31.57,4.4C66.09,459.06,0,368.88,0,274.33l.43-6.93c.47-3.18.87-6.32,1.23-9.5C4,236.56,20,139.91,118.39,98.81c0,0,40.08-17.62,95.16-19.1,3.25-.08,6.54-.11,9.9-.08,63.85.58,144.78,24.13,206.79,118.9a171.17,171.17,0,0,1,19.83,41.93,343.82,343.82,0,0,1,15.28,83.75C468.35,379.72,457.58,449,406.48,512.59Z"/><path class="cls-2" d="M118.85,305.49s13,12,29.24-10c0,0-7.5,18.63-19.11,21.42a10.21,10.21,0,0,1-10.26-4.31C117.69,310.87,118.09,308.4,118.85,305.49Z"/><path class="cls-1" d="M324.71,230.07h0c-6-9.14-10.65-17.49-13.13-26.14-3.08,8.68-6.88,17.75-13.13,26.14h0a19.65,19.65,0,0,0-5.32,13.62c0,9.78,8.22,18.71,17.58,19.16,10.58.51,19.31-8.3,19.31-19.25A19.64,19.64,0,0,0,324.71,230.07Z"/><path class="cls-1" d="M290.17,261h0c-3.36-5.11-5.95-9.77-7.33-14.6A54.39,54.39,0,0,1,275.5,261h0a11,11,0,0,0-3,7.61c0,5.47,4.6,10.46,9.82,10.71a10.52,10.52,0,0,0,10.79-10.76A11,11,0,0,0,290.17,261Z"/></svg>