<svg width="224" height="75" viewBox="0 0 224 75" fill="none" xmlns="http://www.w3.org/2000/svg">
<g clip-path="url(#clip0_28_111)">
<path d="M42.3708 17.0252V75H33.3469V52.3563C31.6964 54.0732 29.6711 55.3878 27.4283 56.198C24.9652 57.1212 22.3524 57.5835 19.721 57.5618C15.8674 57.5618 12.4419 56.6921 9.44464 54.9526C6.47565 53.2174 4.0657 50.6727 2.49845 47.6181C0.832816 44.4722 0 40.8855 0 36.8581C0 32.8307 0.832816 29.244 2.49845 26.0981C4.07084 23.0376 6.48746 20.4885 9.46391 18.7508C12.4441 17.0114 15.8695 16.1416 19.7403 16.1416C22.6174 16.1042 25.4708 16.6646 28.1188 17.7872C30.4976 18.7795 32.5968 20.3369 34.2332 22.3236L34.3135 17.0252H42.3708ZM29.9653 45.8926C32.2197 43.5662 33.3469 40.5547 33.3469 36.8581C33.3469 33.1615 32.2197 30.15 29.9653 27.8237C27.7109 25.4952 24.7875 24.3309 21.195 24.3309C17.6026 24.3309 14.6728 25.4952 12.4055 27.8237C10.149 30.1543 9.02181 33.1658 9.02395 36.8581C9.02609 40.5504 10.1533 43.5619 12.4055 45.8926C14.6599 48.2211 17.5897 49.3853 21.195 49.3853C24.8003 49.3853 27.7238 48.2211 29.9653 45.8926Z" fill="#1B1A1B"/>
<path d="M88.2838 17.0252V56.6942H80.2265L80.1462 51.3926C78.5088 53.3811 76.4071 54.9388 74.0253 55.9291C71.3774 57.0516 68.524 57.612 65.6468 57.5746C61.7932 57.5746 58.3677 56.7049 55.3705 54.9654C52.3925 53.2296 49.9755 50.68 48.405 47.6181C46.7501 44.4722 45.9226 40.8855 45.9226 36.8581C45.9226 32.8307 46.7554 29.244 48.4211 26.0981C49.9934 23.0376 52.4101 20.4885 55.3865 18.7508C58.3667 17.0114 61.7921 16.1416 65.6629 16.1416C68.54 16.1042 71.3935 16.6646 74.0414 17.7872C76.4225 18.7786 78.524 20.336 80.1622 22.3236L80.2425 17.0252H88.2838ZM75.8783 45.8926C78.1326 43.5662 79.2598 40.5547 79.2598 36.8581C79.2598 33.1615 78.1326 30.15 75.8783 27.8237C73.6239 25.4952 70.6973 24.3309 67.0984 24.3309C63.4995 24.3309 60.5729 25.4952 58.3185 27.8237C56.062 30.1543 54.9348 33.1658 54.9369 36.8581C54.9391 40.5504 56.0663 43.5619 58.3185 45.8926C60.5729 48.2211 63.4995 49.3853 67.0984 49.3853C70.6973 49.3853 73.6239 48.2211 75.8783 45.8926Z" fill="#1B1A1B"/>
<path d="M134.197 0.483423V56.6942H126.139L126.059 51.3926C124.411 53.3878 122.294 54.9461 119.897 55.9291C117.208 57.0545 114.315 57.6147 111.399 57.5746C107.642 57.5746 104.286 56.7209 101.332 55.0135C98.3698 53.292 95.9546 50.7734 94.3629 47.7462C92.6716 44.6152 91.8259 40.9869 91.8259 36.8613C91.8259 32.7357 92.6716 29.1075 94.3629 25.9764C95.9554 22.9499 98.3704 20.4314 101.332 18.7092C104.284 17.0018 107.64 16.148 111.399 16.148C114.066 16.116 116.715 16.5785 119.212 17.5119C121.444 18.338 123.475 19.6242 125.173 21.2863V0.47702L134.197 0.483423ZM121.791 45.8926C124.046 43.5662 125.173 40.5547 125.173 36.8581C125.173 33.1615 124.046 30.1501 121.791 27.8237C119.537 25.4952 116.61 24.3309 113.011 24.3309C109.412 24.3309 106.486 25.4952 104.231 27.8237C101.969 30.1543 100.837 33.1658 100.837 36.8581C100.837 40.5504 101.964 43.5619 104.219 45.8926C106.473 48.2211 109.4 49.3853 112.998 49.3853C116.597 49.3853 119.528 48.2211 121.791 45.8926Z" fill="#1B1A1B"/>
<path d="M139.107 9.51466C138.583 9.01248 138.169 8.40699 137.893 7.73674C137.616 7.06649 137.483 6.34618 137.501 5.62171C137.473 4.87162 137.6 4.12376 137.877 3.42552C138.153 2.72729 138.572 2.0939 139.107 1.56549C139.653 1.04248 140.3 0.634368 141.007 0.365425C141.715 0.0964831 142.47 -0.0277919 143.227 -7.18981e-06C144 -0.0288835 144.771 0.0945256 145.497 0.363156C146.222 0.631786 146.887 1.04036 147.453 1.56549C148 2.08723 148.43 2.71838 148.714 3.41748C148.999 4.11657 149.131 4.86778 149.104 5.62171C149.121 6.3501 148.982 7.07375 148.698 7.74484C148.413 8.41593 147.989 9.01916 147.453 9.51466C146.887 10.0404 146.222 10.4495 145.497 10.7187C144.772 10.9879 144 11.1118 143.227 11.0834C142.47 11.1107 141.715 10.9859 141.007 10.7164C140.299 10.4469 139.653 10.0382 139.107 9.51466Z" fill="#EE4037"/>
<path d="M147.726 17.0252H138.706V56.6942H147.726V17.0252Z" fill="#1B1A1B"/>
<path d="M178.135 17.1437C179.782 17.6754 181.303 18.536 182.605 19.6728L178.578 26.9817C176.622 25.5979 174.29 24.8418 171.892 24.8143C168.668 24.8143 166.098 25.938 164.185 28.1854C162.271 30.4328 161.318 33.4838 161.326 37.3383V56.6942H152.318V17.0252H160.373L160.453 23.1272C162.011 20.7794 163.783 19.04 165.768 17.9088C167.835 16.7626 170.169 16.1806 172.534 16.2217C174.439 16.2171 176.332 16.5287 178.135 17.1437Z" fill="#1B1A1B"/>
<path d="M223.444 17.0252V56.6942H215.387L215.306 51.3926C213.669 53.3811 211.567 54.9388 209.185 55.9291C206.537 57.0516 203.684 57.612 200.807 57.5746C196.953 57.5746 193.528 56.7049 190.531 54.9654C187.553 53.2296 185.136 50.68 183.565 47.6181C181.899 44.4615 181.067 40.8748 181.067 36.8581C181.067 32.8414 181.899 29.2547 183.565 26.0981C185.137 23.0376 187.554 20.4885 190.531 18.7508C193.511 17.0114 196.936 16.1416 200.807 16.1416C203.684 16.1042 206.537 16.6646 209.185 17.7872C211.567 18.7786 213.668 20.336 215.306 22.3236L215.387 17.0252H223.444ZM211.038 45.8926C213.293 43.5662 214.42 40.5547 214.42 36.8581C214.42 33.1615 213.293 30.15 211.038 27.8237C208.784 25.4952 205.857 24.3309 202.258 24.3309C198.66 24.3309 195.733 25.4952 193.479 27.8237C191.222 30.1543 190.1 33.1658 190.113 36.8581C190.126 40.5504 191.253 43.5619 193.495 45.8926C195.749 48.2211 198.676 49.3853 202.275 49.3853C205.873 49.3853 208.795 48.2211 211.038 45.8926Z" fill="#1B1A1B"/>
<path d="M111.614 65.9976L113.22 71.2159L114.864 65.9976H116.415L114.071 72.6725H112.465L111.685 70.4668L111.043 68.1553L110.381 70.4668L109.578 72.6725H107.973L105.625 66.004H107.189L108.833 71.2223L110.439 66.004L111.614 65.9976Z" fill="#1B1A1B"/>
<path d="M123.93 69.3335C123.93 71.2959 122.565 72.775 120.475 72.775C118.384 72.775 117.048 71.2959 117.048 69.3335C117.048 67.371 118.413 65.8759 120.475 65.8759C120.934 65.8611 121.391 65.9406 121.817 66.1093C122.244 66.278 122.632 66.5323 122.956 66.8566C123.28 67.1808 123.533 67.568 123.701 67.9941C123.869 68.4202 123.947 68.8761 123.93 69.3335ZM118.439 69.3335C118.439 70.5148 119.206 71.4848 120.475 71.4848C121.743 71.4848 122.527 70.5244 122.527 69.3335C122.54 69.055 122.496 68.7768 122.4 68.5153C122.303 68.2538 122.154 68.0143 121.963 67.811C121.772 67.6077 121.541 67.4448 121.286 67.3318C121.03 67.2188 120.754 67.1581 120.475 67.1533C119.206 67.1533 118.439 68.1617 118.439 69.3335Z" fill="#1B1A1B"/>
<path d="M129.945 72.6405V68.9973C129.945 68.0145 129.376 67.1949 128.394 67.1949C127.411 67.1949 126.788 68.0145 126.788 68.9973V72.6405H125.398V65.9976H126.682L126.778 66.8844C126.966 66.5631 127.239 66.3 127.567 66.1242C127.895 65.9484 128.266 65.8669 128.638 65.8887C129.084 65.8594 129.527 65.9728 129.904 66.2124C130.28 66.4519 130.57 66.8051 130.732 67.2205C130.943 66.8051 131.27 66.4595 131.674 66.2255C132.078 65.9914 132.542 65.8789 133.009 65.9015C134.845 65.9015 135.828 67.0604 135.828 68.9685V72.6405H134.428V68.9685C134.428 67.9857 133.94 67.2077 132.957 67.2077C131.974 67.2077 131.351 68.0145 131.351 68.9973V72.6405H129.945Z" fill="#1B1A1B"/>
<path d="M138.67 69.8425C138.792 70.851 139.634 71.5104 140.841 71.5104C141.516 71.5104 142.367 71.2543 142.768 70.7965L143.67 71.6705C143.294 72.0395 142.847 72.3296 142.356 72.5237C141.865 72.7178 141.34 72.8119 140.812 72.8006C138.625 72.8006 137.222 71.4176 137.222 69.279C137.222 67.2621 138.641 65.8215 140.716 65.8215C142.861 65.8215 144.319 67.1277 144.062 69.8297L138.67 69.8425ZM142.729 68.674C142.649 67.6239 141.882 67.0733 140.761 67.0733C140.28 67.0438 139.805 67.1901 139.425 67.4848C139.045 67.7795 138.786 68.2023 138.696 68.674H142.729Z" fill="#1B1A1B"/>
<path d="M150.527 72.6405V69.0901C150.527 67.9472 149.884 67.1693 148.731 67.1693C147.579 67.1693 146.869 68.0721 146.869 69.1606V72.6405H145.475V65.9976H146.76L146.84 66.958C147.112 66.6251 147.454 66.357 147.843 66.1731C148.232 65.9892 148.657 65.8942 149.088 65.8951C150.694 65.8951 151.949 67.038 151.949 69.0709V72.6405H150.527Z" fill="#1B1A1B"/>
<path d="M157.524 72.6405V67.3134H156.256V66.0904H157.524V65.607C157.524 63.9518 158.565 63.0907 159.926 63.0907C160.51 63.0992 161.079 63.282 161.558 63.6157L161.018 64.669C160.725 64.4513 160.372 64.3284 160.006 64.3168C159.364 64.3168 158.927 64.7362 158.927 65.623V66.1064H160.938V67.3294H158.927V72.6405H157.524Z" fill="#1B1A1B"/>
<path d="M168.436 69.3335C168.436 71.2959 167.075 72.775 164.984 72.775C162.894 72.775 161.558 71.2959 161.558 69.3335C161.558 67.371 162.919 65.8759 164.984 65.8759C165.443 65.8611 165.9 65.9405 166.326 66.1093C166.753 66.278 167.14 66.5324 167.464 66.8567C167.788 67.181 168.041 67.5682 168.208 67.9943C168.376 68.4204 168.453 68.8762 168.436 69.3335ZM162.948 69.3335C162.948 70.5148 163.716 71.4848 164.984 71.4848C166.253 71.4848 167.036 70.5244 167.036 69.3335C167.049 69.055 167.006 68.7768 166.909 68.5153C166.812 68.2538 166.664 68.0143 166.472 67.811C166.281 67.6077 166.051 67.4448 165.795 67.3318C165.539 67.2188 165.264 67.1581 164.984 67.1533C163.716 67.1533 162.948 68.1617 162.948 69.3335Z" fill="#1B1A1B"/>
<path d="M171.201 66.0104L171.298 66.8844C171.783 66.036 172.537 65.8631 173.253 65.8631C173.851 65.8528 174.433 66.0523 174.898 66.4266L174.255 67.6367C173.988 67.4207 173.665 67.2847 173.323 67.2443C172.981 67.204 172.635 67.261 172.325 67.4087C172.014 67.5565 171.752 67.789 171.568 68.0792C171.385 68.3694 171.288 68.7055 171.288 69.0485V72.6405H169.898V66.0104H171.201Z" fill="#1B1A1B"/>
<path d="M183.138 65.9976L184.744 71.2159L186.391 65.9976H187.942L185.595 72.6725H183.989L183.206 70.4668L182.563 68.1553L181.902 70.4668L181.102 72.6725H179.496L177.149 66.004H178.713L180.36 71.2223L181.966 66.004L183.138 65.9976Z" fill="#1B1A1B"/>
<path d="M195.454 69.3335C195.454 71.2959 194.092 72.775 192.001 72.775C189.911 72.775 188.575 71.2959 188.575 69.3335C188.575 67.371 189.937 65.8759 192.001 65.8759C192.46 65.8611 192.917 65.9405 193.344 66.1093C193.77 66.278 194.158 66.5324 194.481 66.8567C194.805 67.181 195.059 67.5682 195.226 67.9943C195.393 68.4204 195.471 68.8762 195.454 69.3335ZM189.962 69.3335C189.962 70.5148 190.733 71.4848 192.001 71.4848C193.27 71.4848 194.05 70.5244 194.05 69.3335C194.064 69.0552 194.021 68.777 193.924 68.5155C193.828 68.254 193.68 68.0145 193.489 67.8112C193.298 67.6079 193.067 67.4448 192.812 67.3318C192.557 67.2188 192.281 67.1581 192.001 67.1533C190.733 67.1533 189.962 68.1617 189.962 69.3335Z" fill="#1B1A1B"/>
<path d="M201.469 72.6406V68.9973C201.469 68.0145 200.903 67.1949 199.917 67.1949C198.932 67.1949 198.312 68.0145 198.312 68.9973V72.6406H196.921V65.9976H198.206L198.299 66.8844C198.487 66.5631 198.76 66.3001 199.089 66.1243C199.418 65.9486 199.789 65.867 200.162 65.8887C200.607 65.8596 201.05 65.9731 201.426 66.2127C201.802 66.4523 202.092 66.8054 202.252 67.2205C202.464 66.8048 202.792 66.4592 203.197 66.2251C203.601 65.9911 204.065 65.8787 204.532 65.9015C206.366 65.9015 207.352 67.0604 207.352 68.9685V72.6406H205.948V68.9685C205.948 67.9857 205.464 67.2077 204.478 67.2077C203.492 67.2077 202.872 68.0145 202.872 68.9973V72.6406H201.469Z" fill="#1B1A1B"/>
<path d="M210.194 69.8425C210.316 70.851 211.157 71.5104 212.368 71.5104C213.042 71.5104 213.89 71.2543 214.295 70.7965L215.2 71.6705C214.823 72.0394 214.376 72.3295 213.884 72.5235C213.393 72.7176 212.867 72.8118 212.339 72.8006C210.155 72.8006 208.752 71.4176 208.752 69.279C208.752 67.2621 210.168 65.8215 212.246 65.8215C214.391 65.8215 215.846 67.1277 215.592 69.8297L210.194 69.8425ZM214.256 68.674C214.173 67.6239 213.405 67.0733 212.284 67.0733C211.804 67.0432 211.329 67.1894 210.949 67.4842C210.57 67.7791 210.311 68.2023 210.223 68.674H214.256Z" fill="#1B1A1B"/>
<path d="M222.05 72.6405V69.0901C222.05 67.9472 221.408 67.1693 220.258 67.1693C219.109 67.1693 218.396 68.0721 218.396 69.1606V72.6405H217.005V65.9976H218.29L218.37 66.958C218.642 66.6251 218.984 66.357 219.373 66.1731C219.762 65.9892 220.187 65.8942 220.618 65.8951C222.224 65.8951 223.476 67.038 223.476 69.0709V72.6405H222.05Z" fill="#1B1A1B"/>
</g>
<defs>
<clipPath id="clip0_28_111">
<rect width="223.454" height="75" fill="white"/>
</clipPath>
</defs>
</svg>
